<svg width="32" height="32" viewBox="0 0 32 32" fill="none" xmlns="http://www.w3.org/2000/svg">
<path d="M8.2 9.6C8.4 9.8 8.7 9.9 8.9 9.9C9.1 9.9 9.4 9.8 9.6 9.6C10 9.2 10 8.6 9.6 8.2L7.5 6.1C7.1 5.7 6.5 5.7 6.1 6.1C5.7 6.5 5.7 7.1 6.1 7.5L8.2 9.6Z" fill="#FF3D4A"/>
<path d="M7 16C7 15.4 6.6 15 6 15H3C2.4 15 2 15.4 2 16C2 16.6 2.4 17 3 17H6C6.6 17 7 16.6 7 16Z" fill="#FF3D4A"/>
<path d="M8.2 22.4L6.1 24.5C5.7 24.9 5.7 25.5 6.1 25.9C6.3 26.1 6.6 26.2 6.8 26.2C7 26.2 7.3 26.1 7.5 25.9L9.6 23.8C10 23.4 10 22.8 9.6 22.4C9.2 22 8.6 22 8.2 22.4Z" fill="#FF3D4A"/>
<path d="M29.4 16.2C29 16 28.5 16.1 28.2 16.5C27.4 17.5 26.2 18 25 18C22.7 18 20.7 16.1 20.7 13.7C20.7 12.1 21.6 10.7 23 9.9C23.4 9.7 23.6 9.2 23.5 8.8C23.4 8.4 23 8 22.5 8C22.4 8 22.2 8 22.1 8C20.2 8 18.4 8.7 17 9.8V3C17 2.4 16.6 2 16 2C15.4 2 15 2.4 15 3V8.1C11.1 8.6 8 12 8 16C8 20 11.1 23.4 15 23.9V29C15 29.6 15.4 30 16 30C16.6 30 17 29.6 17 29V22.2C18.4 23.4 20.2 24 22.1 24C26.1 24 29.4 21.1 30 17.2C30.1 16.8 29.8 16.3 29.4 16.2ZM17 20C17 20.6 16.6 21 16 21C15.4 21 15 20.6 15 20V12C15 11.4 15.4 11 16 11C16.6 11 17 11.4 17 12V20Z" fill="#FF3D4A"/>
</svg>
