<svg width="40" height="40" viewBox="0 0 40 40" fill="none" xmlns="http://www.w3.org/2000/svg">
<path d="M20 38.75C16.2916 38.75 12.6665 37.6503 9.58306 35.5901C6.49962 33.5298 4.0964 30.6014 2.67726 27.1753C1.25812 23.7492 0.886805 19.9792 1.61027 16.3421C2.33375 12.7049 4.11951 9.364 6.74175 6.74175C9.364 4.11952 12.7049 2.33375 16.3421 1.61029C19.9792 0.886811 23.7492 1.25812 27.1753 2.67727C30.6014 4.09641 33.5297 6.49962 35.5901 9.58306C37.6503 12.6665 38.75 16.2916 38.75 20C38.7444 24.9711 36.7671 29.7369 33.2521 33.2521C29.7369 36.7671 24.9711 38.7444 20 38.75ZM20 2.5C16.5388 2.5 13.1554 3.52636 10.2775 5.44929C7.39969 7.37219 5.15664 10.1053 3.83211 13.3031C2.50757 16.5007 2.16102 20.0194 2.83626 23.4141C3.5115 26.8087 5.17821 29.9269 7.62562 32.3744C10.0731 34.8218 13.1912 36.4885 16.5859 37.1637C19.9806 37.839 23.4992 37.4924 26.6969 36.1679C29.8947 34.8434 32.6278 32.6004 34.5507 29.7225C36.4736 26.8446 37.5 23.4612 37.5 20C37.4947 15.3604 35.6492 10.9122 32.3685 7.6315C29.0878 4.35074 24.6397 2.5053 20 2.5Z" fill="#FF3D4A"/>
<path d="M20 3.75C16.7861 3.75 13.6443 4.70304 10.972 6.48863C8.29969 8.27419 6.21688 10.8121 4.98696 13.7814C3.75703 16.7507 3.43523 20.018 4.06224 23.1702C4.68925 26.3224 6.23691 29.2179 8.5095 31.4905C10.7821 33.7631 13.6776 35.3108 16.8298 35.9378C19.982 36.5648 23.2493 36.2429 26.2186 35.0131C29.1879 33.7831 31.7258 31.7003 33.5114 29.028C35.2969 26.3557 36.25 23.2139 36.25 20C36.2452 15.6917 34.5316 11.5613 31.4852 8.51481C28.4388 5.46839 24.3083 3.7548 20 3.75ZM18.125 8.725C18.125 8.22775 18.3226 7.75081 18.6742 7.39919C19.0258 7.04756 19.5027 6.85 20 6.85C20.4972 6.85 20.9742 7.04756 21.3258 7.39919C21.6774 7.75081 21.875 8.22775 21.875 8.725V20.65C21.8743 21.1404 21.6792 21.6106 21.3324 21.9574C20.9856 22.3042 20.5154 22.4993 20.025 22.5H19.975C19.4846 22.4993 19.0144 22.3042 18.6676 21.9574C18.3208 21.6106 18.1257 21.1404 18.125 20.65V8.725ZM27.9125 28.85C26.6946 29.9419 25.2641 30.7703 23.7108 31.2831C22.1576 31.7959 20.5151 31.9822 18.8864 31.8302C17.2578 31.6782 15.6781 31.1912 14.2466 30.3998C12.8151 29.6083 11.5626 28.5296 10.5677 27.2311C9.57288 25.9327 8.85712 24.4427 8.46537 22.8545C8.07369 21.2664 8.0145 19.6144 8.29144 18.0023C8.56844 16.3902 9.17563 14.8528 10.075 13.4864C10.9743 12.1201 12.1463 10.9544 13.5175 10.0625C13.7411 9.91713 13.9929 9.82075 14.2564 9.77981C14.5199 9.73888 14.7891 9.75425 15.0462 9.825C15.2973 9.89456 15.5307 10.0166 15.7311 10.1831C15.9315 10.3496 16.0943 10.5566 16.2087 10.7906C16.4161 11.205 16.4634 11.6813 16.3418 12.1284C16.2202 12.5755 15.9381 12.9621 15.5494 13.2144C14.0861 14.1731 12.9712 15.5784 12.3706 17.2215C11.7701 18.8646 11.7159 20.6576 12.2161 22.334C12.7163 24.0104 13.7443 25.4805 15.147 26.5258C16.5498 27.5711 18.2525 28.1358 20.0019 28.1358C21.7512 28.1358 23.4539 27.5711 24.8568 26.5258C26.2595 25.4805 27.2874 24.0104 27.7876 22.334C28.2879 20.6576 28.2337 18.8646 27.6331 17.2215C27.0326 15.5784 25.9177 14.1731 24.4544 13.2144C24.0358 12.9457 23.7412 12.5218 23.6352 12.0358C23.5292 11.5498 23.6207 11.0417 23.8894 10.6231C24.1581 10.2046 24.5821 9.90994 25.068 9.80394C25.5539 9.698 26.0621 9.78944 26.4806 10.0581C28.0088 11.0518 29.2873 12.3844 30.2169 13.9524C31.1465 15.5204 31.7021 17.2816 31.8406 19.0993C31.9792 20.9168 31.6968 22.7419 31.0156 24.4326C30.3343 26.1234 29.2724 27.6343 27.9125 28.8481V28.85Z" fill="#FF3D4A"/>
</svg>
