<svg width="25" height="25" viewBox="0 0 25 25" fill="none" xmlns="http://www.w3.org/2000/svg">
<g clip-path="url(#clip0_44_33)">
<path d="M12.5 0C5.59126 0 0 5.59066 0 12.5C0 19.4087 5.59066 25 12.5 25C19.4088 25 25 19.4093 25 12.5C25 5.59126 19.4093 0 12.5 0ZM16.9379 15.8868C16.9379 16.4663 16.4664 16.9379 15.8868 16.9379H9.1133C8.53374 16.9379 8.0622 16.4663 8.0622 15.8868V9.11324C8.0622 8.53368 8.53374 8.06214 9.1133 8.06214H15.8868C16.4664 8.06214 16.9379 8.53368 16.9379 9.11324V15.8868Z" fill="#FF3D4A"/>
</g>
<defs>
<clipPath id="clip0_44_33">
<rect width="25" height="25" fill="white"/>
</clipPath>
</defs>
</svg>
