<svg width="64" height="64" viewBox="0 0 64 64" fill="none" xmlns="http://www.w3.org/2000/svg">
<path d="M56.6 42.72C56.0359 41.6256 55.7443 40.4112 55.75 39.18C55.58 37.27 55.39 35.11 53.5 33.48L40.84 18.59C41.4291 15.6061 40.9624 12.5102 39.5198 9.83252C38.0772 7.15488 35.7485 5.06214 32.9325 3.91276C30.1165 2.76337 26.9885 2.62887 24.0843 3.53227C21.18 4.43568 18.6802 6.32079 17.0131 8.86471C15.346 11.4086 14.6152 14.4531 14.9461 17.4765C15.2769 20.5 16.6486 23.3144 18.8264 25.4376C21.0042 27.5608 23.8525 28.8608 26.8834 29.1148C29.9143 29.3688 32.9392 28.5611 35.44 26.83C35.7707 27.1987 36.0469 27.6129 36.26 28.06C36.2906 28.1258 36.331 28.1865 36.38 28.24C36.74 28.81 38.33 33.58 37.64 36.69C37.5286 37.3454 37.2219 37.9519 36.76 38.43C35.1381 38.0052 33.4354 37.9951 31.8086 38.4005C30.1817 38.8059 28.6829 39.6138 27.45 40.75C21.26 37.6 13.07 38.75 8.24999 43.61C6.61353 45.254 5.69149 47.4771 5.68401 49.7968C5.67652 52.1164 6.58418 54.3454 8.20999 56C10.2209 58.2712 12.886 59.8637 15.8389 60.5585C18.7917 61.2533 21.8873 61.0163 24.7 59.88C27.1105 60.6212 29.6181 60.9987 32.14 61C40.65 61 49.54 56.88 57.01 49.25C57.4208 48.9136 57.7527 48.4913 57.9825 48.0127C58.2123 47.5341 58.3344 47.0109 58.34 46.48C58.3214 45.7678 58.1574 45.0669 57.8582 44.4203C57.559 43.7738 57.1308 43.1952 56.6 42.72ZM16.93 16.08C16.93 13.8881 17.5801 11.7455 18.798 9.92323C20.0159 8.10092 21.747 6.68078 23.7722 5.84245C25.7974 5.00413 28.0257 4.78529 30.1753 5.21363C32.3249 5.64196 34.2991 6.69822 35.8483 8.24879C37.3974 9.79936 38.4519 11.7746 38.8783 13.9245C39.3047 16.0745 39.0839 18.3026 38.2437 20.3271C37.4036 22.3515 35.9818 24.0813 34.1584 25.2975C32.335 26.5138 30.1918 27.162 28 27.16C25.0639 27.1547 22.2498 25.9853 20.1746 23.9083C18.0995 21.8312 16.9326 19.016 16.93 16.08ZM55.64 47.79C47.07 56.55 36.64 60.43 27.35 58.49C27.9484 58.0953 28.5196 57.661 29.06 57.19C29.1591 57.1024 29.2399 56.9961 29.2977 56.8771C29.3554 56.758 29.389 56.6288 29.3965 56.4967C29.4039 56.3646 29.3851 56.2324 29.341 56.1076C29.297 55.9829 29.2287 55.8681 29.14 55.77C28.9634 55.5727 28.7158 55.4535 28.4515 55.4385C28.1872 55.4235 27.9277 55.514 27.73 55.69C26.7197 56.5953 25.5721 57.3345 24.33 57.88H24.25C21.7903 58.9521 19.0546 59.219 16.4341 58.6425C13.8136 58.0659 11.4425 56.6755 9.65999 54.67C8.3819 53.3895 7.66407 51.6542 7.66407 49.845C7.66407 48.0358 8.3819 46.3005 9.65999 45.02C14.66 39.97 22.66 40.02 27.51 43.08L30.08 45.22C30.2747 45.3806 30.5229 45.4617 30.7748 45.447C31.0268 45.4322 31.2638 45.3228 31.4384 45.1406C31.6131 44.9584 31.7123 44.7169 31.7163 44.4645C31.7203 44.2122 31.6288 43.9676 31.46 43.78C30.8041 43.0328 30.0661 42.3619 29.26 41.78C30.2798 40.972 31.4813 40.4249 32.7604 40.1861C34.0394 39.9474 35.3574 40.0242 36.6 40.41L38.87 41.52C39.0983 41.6325 39.3608 41.6538 39.6042 41.5795C39.8476 41.5052 40.0535 41.3408 40.18 41.12C40.3046 40.9024 40.3429 40.646 40.2873 40.4015C40.2317 40.157 40.0864 39.9424 39.88 39.8C39.5182 39.5525 39.1407 39.3287 38.75 39.13C39.2757 38.3354 39.6173 37.4335 39.75 36.49C40.0034 33.2734 39.3996 30.0472 38 27.14C37.7333 26.5709 37.3975 26.0368 37 25.55C38.3817 24.2407 39.4632 22.6475 40.17 20.88L52 34.84L52.12 34.96C53.44 36.06 53.57 37.59 53.73 39.36C53.7353 40.9729 54.1739 42.5547 55 43.94C55.0387 44.0086 55.0895 44.0696 55.15 44.12C55.494 44.4084 55.7759 44.7636 55.9787 45.1641C56.1816 45.5646 56.3011 46.002 56.33 46.45C56.3235 46.7109 56.2581 46.967 56.1386 47.1991C56.0191 47.4311 55.8486 47.6332 55.64 47.79Z" fill="#FF3D4A"/>
<path d="M28.0101 20.75C30.5893 20.75 32.6801 18.6592 32.6801 16.08C32.6801 13.5008 30.5893 11.41 28.0101 11.41C25.4309 11.41 23.3401 13.5008 23.3401 16.08C23.3401 18.6592 25.4309 20.75 28.0101 20.75Z" fill="#FF3D4A"/>
<path d="M42.9301 16.08C42.9301 16.3452 43.0354 16.5996 43.223 16.7871C43.4105 16.9746 43.6648 17.08 43.9301 17.08C44.1953 17.08 44.4496 16.9746 44.6372 16.7871C44.8247 16.5996 44.9301 16.3452 44.9301 16.08C44.9258 13.6388 44.3936 11.2274 43.3701 9.0111C42.3465 6.79483 40.8558 4.82613 39.0001 3.23999C38.9017 3.14916 38.786 3.07901 38.66 3.03372C38.534 2.98843 38.4001 2.96891 38.2664 2.97633C38.1327 2.98374 38.0018 3.01793 37.8816 3.07688C37.7614 3.13583 37.6542 3.21833 37.5664 3.31948C37.4787 3.42064 37.4121 3.53839 37.3707 3.66575C37.3293 3.79311 37.314 3.92748 37.3255 4.0609C37.337 4.19432 37.3752 4.32407 37.4379 4.44244C37.5005 4.56081 37.5862 4.66539 37.6901 4.74999C39.3299 6.14808 40.6474 7.88478 41.5519 9.84064C42.4565 11.7965 42.9267 13.9251 42.9301 16.08Z" fill="#FF3D4A"/>
<path d="M20.3999 31.19C20.5379 31.2649 20.693 31.3028 20.8499 31.3C21.0738 31.2987 21.2908 31.2222 21.4662 31.0829C21.6415 30.9436 21.7649 30.7495 21.8168 30.5316C21.8687 30.3138 21.8459 30.0848 21.7522 29.8815C21.6585 29.6781 21.4992 29.5121 21.2999 29.41C18.8272 28.1713 16.749 26.2677 15.2987 23.9129C13.8483 21.5581 13.0835 18.8456 13.0899 16.08C13.0899 15.8148 12.9846 15.5604 12.797 15.3729C12.6095 15.1853 12.3551 15.08 12.0899 15.08C11.8247 15.08 11.5704 15.1853 11.3828 15.3729C11.1953 15.5604 11.0899 15.8148 11.0899 16.08C11.08 19.2159 11.9463 22.2921 13.5913 24.9619C15.2363 27.6317 17.5945 29.7888 20.3999 31.19Z" fill="#FF3D4A"/>
<path d="M26 58.77L32.33 60.29L40.54 58.58L50.36 53.86L57.63 48V45.24L55.32 42.86L53.76 34.86L50.56 31.86L40.17 19.13L37.74 23.31L36.2 25.53L38.69 31.3L37.69 37.3L36.88 39.67L33 39.45L28.35 40.63L27.71 41.63L23.11 39.91H18.49L11.86 41.91L7.00001 45.14C7.00001 45.14 6.18001 49.14 6.26001 49.38C6.34001 49.62 6.90001 53.18 6.90001 53.18L9.77001 55.25L13.11 58.59L17.37 59.9L21.47 60.11L24.22 59.18L26 58.77Z" fill="#FF3D4A"/>
</svg>
